Please note that the quality of programmes is not DVD. They seem to be off-air onto vhs, variable but still very watchable.

I have a less than 2mb broadband service. I will seed for as long as I can then expect downloaders to carry on with seeding.
If that proves successful I may upload the remaining four series. 
It's up to the downloaders. I will not support freeloaders or trolls.


General
Complete name                            : TV Comedy70's1975 - Barney MillerSeries 4
Format                                   : AVI
Format/Info                              : Audio Video Interleave
File size                                : 174 MiB
Duration                                 : 21mn 58s (average)
Overall bit rate mode                    : Variable
Overall bit rate                         : 1 112 Kbps
Writing application                      : VirtualDubMod 1.5.4.1 (build 2178/release)
Writing library                          : VirtualDubMod build 2178/release

Video
ID                                       : 0
Format                                   : MPEG-4 Visual
Format settings, BVOP                    : 1
Format settings, QPel                    : No
Format settings, GMC                     : No warppoints
Format settings, Matrix                  : Default (H.263)
Muxing mode                              : Packed bitstream
Codec ID                                 : DX50
Codec ID/Hint                            : DivX 5
Duration                                 : 21mn 58s (average)
Bit rate                                 : 997 Kbps
Width                                    : 544 pixels
Height                                   : 416 pixels
Display aspect ratio                     : 4:3
Frame rate                               : 29.970 fps
Color space                              : YUV
Chroma subsampling                       : 4:2:0
Bit depth                                : 8 bits
Scan type                                : Progressive
Compression mode                         : Lossy
Bits/(Pixel*Frame)                       : 0.147
Stream size                              : 157 MiB (90%)
Writing library                          : DivX 5.0.5 (UTC 2003-04-24)

Audio
ID                                       : 1
Format                                   : MPEG Audio
Format version                           : Version 1
Format profile                           : Layer 3
Mode                                     : Joint stereo
Mode extension                           : MS Stereo
Codec ID                                 : 55
Codec ID/Hint                            : MP3
Duration                                 : 21mn 58s (average)
Bit rate mode                            : Variable
Bit rate                                 : 102 Kbps
Nominal bit rate                         : 128 Kbps
Channel(s)                               : 2 channels
Sampling rate                            : 48.0 KHz
Compression mode                         : Lossy
Stream size                              : 16.0 MiB (9%)
Alignment                                : Aligned on interleaves
Interleave, duration                     : 24 ms (0.72 video frame)
Interleave, preload duration             : 564 ms
Writing library                          : LAME3.97 
Encoding settings                        : -m j -V 4 -q 2 -lowpass 17 --abr 128


